<svg width="100%" height="100%" viewBox="0 0 60 60" version="1.1" xmlns="http://www.w3.org/2000/svg" xmlns:xlink="http://www.w3.org/1999/xlink" xml:space="preserve" style="fill-rule:evenodd;clip-rule:evenodd;stroke-linejoin:round;stroke-miterlimit:1.41421;">
    <g id="Croix">
        <g transform="matrix(0.914769,0,0,0.914769,2.59783,2.85434)">
            <path d="M2.276,-0.546C2.466,-0.514 2.515,-0.513 2.699,-0.454C2.974,-0.366 3.232,-0.225 3.455,-0.041C3.511,0.005 3.562,0.056 3.616,0.105L58.503,54.991C58.632,55.134 58.67,55.166 58.778,55.325C59.063,55.746 59.2,56.258 59.164,56.764C59.149,56.981 59.102,57.195 59.026,57.398C58.797,58.012 58.302,58.507 57.688,58.736C57.485,58.812 57.271,58.858 57.055,58.874C56.766,58.894 56.474,58.859 56.199,58.771C55.923,58.683 55.665,58.542 55.442,58.358C55.387,58.312 55.335,58.261 55.282,58.212L0.395,3.325C0.346,3.272 0.295,3.221 0.249,3.165C0.065,2.942 -0.076,2.684 -0.164,2.408C-0.363,1.784 -0.28,1.089 0.061,0.53C0.174,0.344 0.313,0.176 0.473,0.03C0.634,-0.116 0.815,-0.239 1.01,-0.334C1.27,-0.46 1.554,-0.536 1.843,-0.557C1.915,-0.562 1.987,-0.56 2.06,-0.562C2.132,-0.557 2.204,-0.552 2.276,-0.546Z" style="fill-rule:nonzero;"/>
        </g>
        <g transform="matrix(-0.914769,0,0,0.914769,56.4757,2.85434)">
            <path d="M1.843,-0.557C1.771,-0.548 1.699,-0.543 1.628,-0.531C1.343,-0.483 1.067,-0.38 0.82,-0.23C0.635,-0.117 0.466,0.023 0.32,0.183C-0.071,0.613 -0.285,1.188 -0.271,1.769C-0.266,1.986 -0.23,2.202 -0.164,2.408C-0.076,2.684 0.065,2.942 0.249,3.165C0.295,3.221 0.346,3.272 0.395,3.325L55.282,58.212C55.424,58.342 55.456,58.38 55.616,58.488C56.036,58.773 56.548,58.91 57.055,58.874C57.343,58.853 57.627,58.777 57.887,58.65C58.083,58.556 58.264,58.433 58.424,58.287C58.585,58.141 58.724,57.972 58.837,57.787C59.178,57.227 59.261,56.533 59.062,55.908C58.974,55.633 58.833,55.375 58.649,55.152C58.603,55.096 58.551,55.045 58.503,54.991L3.616,0.105C3.473,-0.025 3.442,-0.063 3.282,-0.171C3.042,-0.333 2.772,-0.449 2.49,-0.51C2.301,-0.551 2.252,-0.548 2.06,-0.562C1.987,-0.56 1.915,-0.558 1.843,-0.557Z" style="fill-rule:nonzero;"/>
        </g>
    </g>
</svg>
