<?xml version="1.0" encoding="UTF-8" standalone="no"?>
<!DOCTYPE svg PUBLIC "-//W3C//DTD SVG 1.1//EN" "http://www.w3.org/Graphics/SVG/1.1/DTD/svg11.dtd">
<svg width="100%" height="100%" viewBox="0 0 473 473" version="1.1" xmlns="http://www.w3.org/2000/svg" xmlns:xlink="http://www.w3.org/1999/xlink" xml:space="preserve" style="fill-rule:evenodd;clip-rule:evenodd;stroke-linecap:round;stroke-linejoin:round;stroke-miterlimit:10;">
    <g transform="matrix(8.94494,0,0,8.94494,-2178.91,-32.1278)">
        <path d="M295,30C295,43.807 283.807,55 270,55C256.193,55 245,43.807 245,30C245,16.193 256.193,5 270,5C283.807,5 295,16.193 295,30Z" style="fill:none;stroke-width:1.0px;"/>
    </g>
    <g transform="matrix(8.94494,0,0,8.94494,-2178.91,-32.1278)">
        <path d="M270.43,21.142C270.305,21.23 270.193,21.314 270.114,21.394C270.304,21.249 270.387,21.179 270.43,21.142Z" style="fill:none;stroke-width:1.0px;"/>
    </g>
    <g transform="matrix(8.94494,0,0,8.94494,-2178.91,-32.1278)">
        <path class="terre" d="M249.518,16.291C249.368,18.014 249.614,19.617 250.9,20.824C251.266,21.167 251.78,21.286 252.09,21.682C252.539,22.281 252.948,22.549 253.484,22.758C254.384,23.058 254.595,23.616 255.202,24.375C255.785,25.14 256.29,25.557 256.638,26.457C257.035,27.527 259.909,27.527 260.896,28.048C262.273,28.773 267.637,32.431 269.189,32.226C269.189,32.226 271.11,32.187 270.714,33.638C270.526,34.293 269.934,34.694 269.693,35.335C269.483,35.913 269.621,36.411 269.549,36.97C269.477,37.542 269.027,36.964 269.477,37.94C269.676,38.395 269.982,38.804 270.252,39.215C270.769,40.042 271.148,40.763 271.863,41.429C272.355,41.902 273.443,42.455 273.696,43.151C273.924,43.767 273.737,45.135 273.629,45.787C273.389,47.162 273.425,48.809 273.053,50.078C272.698,51.328 272.283,51.688 272.59,53.038C272.733,53.662 272.474,54.679 272.505,54.599C272.468,54.704 272.411,54.793 272.358,54.886C273.42,54.786 274.461,54.618 275.48,54.39C275.489,54.375 275.505,54.352 275.512,54.338C275.674,53.917 276.403,52.205 276.772,52.092C276.596,50.599 278.845,51.856 279.085,50.327C278.826,50.189 278.875,50.265 278.839,50.034C278.887,50.308 279.92,49.922 280.022,50.116C280.095,50.265 281.411,48.406 281.555,48.25C281.933,47.846 282.258,47.528 282.486,47.043C283.239,45.585 283.171,45.842 284.577,45.141C284.383,45.239 286.047,43.794 286.145,43.238C286.271,42.542 286.109,41.902 286.326,41.273C286.602,40.477 287.263,40.223 287.695,39.545C288.038,39.029 288.35,38.19 287.9,37.679C287.094,36.768 284.625,36.575 284.036,36.361C282.4,35.782 281.976,35.658 281.855,34.801C281.643,32.884 279.259,33.084 278.647,32.568C276.94,31.136 273.708,30.546 272.163,31.033C271.03,31.394 271.625,32.276 270.553,31.754C268.718,30.879 267.628,30.218 266.971,29.049C266.733,28.615 266.22,28.887 266.335,28.415C266.449,27.904 267.747,26.519 266.419,26.555C265.4,26.59 264.219,27.14 264.116,26.209C263.977,24.867 263.887,24.146 265.135,23.348C266.148,22.708 267.603,22.104 268.467,23.453C268.72,23.844 269.345,25.361 269.657,24.379C269.753,24.08 269.411,22.787 269.297,22.234C269.297,22.24 269.29,22.246 269.285,22.252C269.285,22.19 269.279,22.134 269.273,22.072C269.279,22.115 269.285,22.172 269.297,22.234C269.627,21.704 270.616,20.978 270.43,21.142C270.789,20.89 271.255,20.604 271.358,20.281C271.436,20.039 271.087,19.728 271.268,19.398C271.215,19.494 272.972,16.801 274.308,16.439C274.647,16.289 275.405,16.411 276.111,16.483C276.736,16.567 277.175,15.804 277.673,15.469C278.532,14.878 279.524,14.853 280.557,15.071C280.876,15.127 280.001,13.794 279.896,13.69C279.028,12.91 279.326,12.888 279.397,12.552C279.5,12.055 278.376,11.241 278.117,11.017C277.565,10.532 277.271,10.251 276.958,9.493C276.634,8.685 276.55,8.172 275.582,8.473C274.471,8.838 274.471,8.681 272.974,7.516C272.61,7.235 271.262,6.77 270.661,7.223C270.204,7.559 270.727,8.859 270.865,9.325C271.165,10.326 270.814,9.983 270.523,10.992C270.208,12.049 270.187,12.689 269.333,12.789C268.538,12.862 269.255,11.968 268.906,11.483C268.654,11.116 267.284,10.812 266.815,10.588C265.776,10.109 263.036,9.58 263.883,7.92C264.258,7.165 266.72,5.711 266.587,5.837C266.812,5.625 267.049,5.39 267.291,5.148C260.106,5.923 253.836,9.742 249.791,15.289C249.693,15.624 249.55,15.963 249.518,16.291Z" style="stroke-width:1.0px;"/>
    </g>
    <g transform="matrix(8.94494,0,0,8.94494,-2178.91,-32.1278)">
        <path d="M275.503,54.385C275.516,54.356 275.534,54.315 275.558,54.257C275.552,54.274 275.525,54.314 275.511,54.339C275.503,54.36 275.499,54.373 275.494,54.387C275.497,54.386 275.5,54.386 275.503,54.385Z" style="fill:none;stroke-width:1.0px;"/>
    </g>
</svg>
