<svg width="100%" height="100%" viewBox="0 0 60 60" version="1.1" xmlns="http://www.w3.org/2000/svg" xmlns:xlink="http://www.w3.org/1999/xlink" xml:space="preserve" style="fill-rule:evenodd;clip-rule:evenodd;stroke-linejoin:round;stroke-miterlimit:1.41421;">
    <g id="Hamburger">
        <g transform="matrix(0.986052,0,0,1,0.412193,-0.0408351)">
            <path d="M57.269,27.455C57.34,27.466 57.411,27.473 57.481,27.487C57.761,27.544 58.028,27.657 58.263,27.818C58.438,27.938 58.595,28.085 58.726,28.252C58.858,28.419 58.963,28.606 59.037,28.804C59.262,29.404 59.192,30.087 58.849,30.63C58.735,30.809 58.594,30.971 58.432,31.108C58.161,31.338 57.831,31.497 57.481,31.568C57.294,31.606 57.245,31.601 57.056,31.611L2.048,31.611C1.977,31.607 1.905,31.607 1.834,31.6C1.55,31.572 1.273,31.486 1.023,31.349C0.836,31.247 0.664,31.116 0.517,30.963C0.07,30.5 -0.138,29.844 -0.04,29.212C-0.008,29.003 0.057,28.8 0.151,28.61C0.246,28.42 0.369,28.245 0.517,28.092C0.813,27.785 1.202,27.572 1.623,27.487C1.81,27.449 1.858,27.454 2.048,27.444L57.056,27.444C57.127,27.448 57.198,27.451 57.269,27.455Z" style="fill-rule:nonzero;"/>
        </g>
        <g transform="matrix(0.986052,0,0,1,0.412193,-17.5808)">
            <path d="M57.269,27.455C57.34,27.466 57.411,27.473 57.481,27.487C57.761,27.544 58.028,27.657 58.263,27.818C58.438,27.938 58.595,28.085 58.726,28.252C58.858,28.419 58.963,28.606 59.037,28.804C59.262,29.404 59.192,30.087 58.849,30.63C58.735,30.809 58.594,30.971 58.432,31.108C58.161,31.338 57.831,31.497 57.481,31.568C57.294,31.606 57.245,31.601 57.056,31.611L2.048,31.611C1.977,31.607 1.905,31.607 1.834,31.6C1.55,31.572 1.273,31.486 1.023,31.349C0.836,31.247 0.664,31.116 0.517,30.963C0.369,30.81 0.246,30.635 0.151,30.445C0.057,30.255 -0.008,30.052 -0.04,29.843C-0.138,29.211 0.07,28.556 0.517,28.092C0.813,27.785 1.202,27.572 1.623,27.487C1.81,27.449 1.858,27.454 2.048,27.444L57.056,27.444C57.127,27.448 57.198,27.451 57.269,27.455Z" style="fill-rule:nonzero;"/>
        </g>
        <g transform="matrix(0.986052,0,0,1,0.412193,17.5808)">
            <path d="M57.269,27.455C57.34,27.466 57.411,27.473 57.481,27.487C57.761,27.544 58.028,27.657 58.263,27.818C58.438,27.938 58.595,28.085 58.726,28.252C58.858,28.419 58.963,28.606 59.037,28.804C59.262,29.404 59.192,30.087 58.849,30.63C58.735,30.809 58.594,30.971 58.432,31.108C58.161,31.338 57.831,31.497 57.481,31.568C57.294,31.606 57.245,31.601 57.056,31.611L2.048,31.611C1.858,31.601 1.81,31.606 1.623,31.568C1.202,31.483 0.813,31.27 0.517,30.963C0.369,30.81 0.246,30.635 0.151,30.445C0.057,30.255 -0.008,30.052 -0.04,29.843C-0.073,29.634 -0.073,29.421 -0.04,29.212C0.058,28.58 0.456,28.016 1.023,27.706C1.273,27.569 1.55,27.483 1.834,27.455C1.905,27.448 1.977,27.448 2.048,27.444L57.056,27.444C57.127,27.448 57.198,27.451 57.269,27.455Z" style="fill-rule:nonzero;"/>
        </g>
    </g>
</svg>
